# MagicaVoxel @ Ephtracy

# group
g D

# material
mtllib D.mtl
usemtl palette

# normals
vn -1 0 0
vn 1 0 0
vn 0 0 1
vn 0 0 -1
vn 0 -1 0
vn 0 1 0

# texcoords
vt 0.966797 0.5
vt 0.982422 0.5

# verts
v -40 0 12
v -40 0 -18
v -40 43 12
v -40 43 -18
v -40 45 12
v -40 45 -18
v -40 56 12
v -40 56 -18
v -40 58 12
v -40 58 -18
v -40 80 12
v -40 80 -18
v 20 40 12
v 20 40 11
v 20 40 -18
v 20 62 12
v 20 62 11
v 20 62 -18
v 31 22 18
v 31 22 12
v 31 28 15
v 31 28 12
v 31 46 15
v 31 46 12
v 31 52 18
v 31 52 12
v -19 40 12
v -19 40 11
v -19 40 -18
v -19 62 12
v -19 62 11
v -19 62 -18
v 35 22 18
v 35 22 12
v 35 28 15
v 35 28 12
v 35 46 15
v 35 46 12
v 35 52 18
v 35 52 12
v 40 0 12
v 40 0 -18
v 40 43 12
v 40 43 -18
v 40 45 12
v 40 45 -18
v 40 56 12
v 40 56 -18
v 40 58 12
v 40 58 -18
v 40 80 12
v 40 80 -18
v 31 22 18
v 31 52 18
v 35 22 18
v 35 52 18
v -40 0 12
v -40 43 12
v -40 45 12
v -40 56 12
v -40 58 12
v -40 80 12
v -25 33 12
v -25 43 12
v -25 45 12
v -25 56 12
v -25 58 12
v -25 67 12
v -19 40 12
v -19 62 12
v 20 40 12
v 20 62 12
v 26 33 12
v 26 43 12
v 26 45 12
v 26 56 12
v 26 58 12
v 26 67 12
v 31 22 12
v 31 28 12
v 31 46 12
v 31 52 12
v 35 22 12
v 35 28 12
v 35 46 12
v 35 52 12
v 40 0 12
v 40 43 12
v 40 45 12
v 40 56 12
v 40 58 12
v 40 80 12
v 31 28 15
v 31 46 15
v 35 28 15
v 35 46 15
v -40 0 -18
v -40 43 -18
v -40 45 -18
v -40 56 -18
v -40 58 -18
v -40 80 -18
v -39 42 -18
v -39 43 -18
v -39 57 -18
v -39 58 -18
v -25 55 -18
v -25 56 -18
v -24 44 -18
v -24 45 -18
v -24 55 -18
v -24 57 -18
v -21 42 -18
v -21 44 -18
v -19 40 -18
v -19 62 -18
v 20 40 -18
v 20 62 -18
v 23 56 -18
v 23 58 -18
v 25 43 -18
v 25 45 -18
v 40 0 -18
v 40 43 -18
v 40 45 -18
v 40 56 -18
v 40 58 -18
v 40 80 -18
v -40 0 12
v 40 0 12
v -40 0 -18
v 40 0 -18
v 31 22 18
v 35 22 18
v 31 22 12
v 35 22 12
v 31 46 15
v 35 46 15
v 31 46 12
v 35 46 12
v -19 62 12
v 20 62 12
v -19 62 11
v 20 62 11
v -19 62 -18
v 20 62 -18
v 31 28 15
v 35 28 15
v 31 28 12
v 35 28 12
v -19 40 12
v 20 40 12
v -19 40 11
v 20 40 11
v -19 40 -18
v 20 40 -18
v 31 52 18
v 35 52 18
v 31 52 12
v 35 52 12
v -40 80 12
v 40 80 12
v -40 80 -18
v 40 80 -18

# faces
f 3/1/1 2/1/1 1/1/1
f 4/1/1 2/1/1 3/1/1
f 5/2/1 4/2/1 3/2/1
f 6/2/1 4/2/1 5/2/1
f 7/1/1 6/1/1 5/1/1
f 8/1/1 6/1/1 7/1/1
f 9/2/1 8/2/1 7/2/1
f 10/2/1 8/2/1 9/2/1
f 11/1/1 10/1/1 9/1/1
f 12/1/1 10/1/1 11/1/1
f 16/2/1 14/2/1 13/2/1
f 17/1/1 15/1/1 14/1/1
f 17/2/1 14/2/1 16/2/1
f 18/1/1 15/1/1 17/1/1
f 21/2/1 20/2/1 19/2/1
f 22/2/1 20/2/1 21/2/1
f 23/2/1 21/2/1 19/2/1
f 25/2/1 23/2/1 19/2/1
f 25/2/1 24/2/1 23/2/1
f 26/2/1 24/2/1 25/2/1
f 27/2/2 28/2/2 30/2/2
f 28/1/2 29/1/2 31/1/2
f 30/2/2 28/2/2 31/2/2
f 31/1/2 29/1/2 32/1/2
f 33/2/2 34/2/2 35/2/2
f 35/2/2 34/2/2 36/2/2
f 33/2/2 35/2/2 37/2/2
f 33/2/2 37/2/2 39/2/2
f 37/2/2 38/2/2 39/2/2
f 39/2/2 38/2/2 40/2/2
f 41/1/2 42/1/2 43/1/2
f 43/1/2 42/1/2 44/1/2
f 43/2/2 44/2/2 45/2/2
f 45/2/2 44/2/2 46/2/2
f 45/1/2 46/1/2 47/1/2
f 47/1/2 46/1/2 48/1/2
f 47/2/2 48/2/2 49/2/2
f 49/2/2 48/2/2 50/2/2
f 49/1/2 50/1/2 51/1/2
f 51/1/2 50/1/2 52/1/2
f 55/2/3 54/2/3 53/2/3
f 56/2/3 54/2/3 55/2/3
f 63/1/3 58/1/3 57/1/3
f 64/2/3 59/2/3 58/2/3
f 64/1/3 58/1/3 63/1/3
f 65/1/3 60/1/3 59/1/3
f 65/2/3 59/2/3 64/2/3
f 66/2/3 61/2/3 60/2/3
f 66/1/3 60/1/3 65/1/3
f 67/1/3 62/1/3 61/1/3
f 67/2/3 61/2/3 66/2/3
f 68/1/3 62/1/3 67/1/3
f 69/2/3 66/2/3 65/2/3
f 69/2/3 64/2/3 63/2/3
f 69/2/3 68/2/3 67/2/3
f 69/2/3 67/2/3 66/2/3
f 69/2/3 65/2/3 64/2/3
f 70/2/3 68/2/3 69/2/3
f 71/2/3 69/2/3 63/2/3
f 72/2/3 68/2/3 70/2/3
f 73/1/3 63/1/3 57/1/3
f 73/2/3 72/2/3 71/2/3
f 73/2/3 71/2/3 63/2/3
f 74/2/3 72/2/3 73/2/3
f 75/2/3 72/2/3 74/2/3
f 76/2/3 72/2/3 75/2/3
f 77/2/3 72/2/3 76/2/3
f 78/1/3 62/1/3 68/1/3
f 78/2/3 72/2/3 77/2/3
f 78/2/3 68/2/3 72/2/3
f 79/1/3 73/1/3 57/1/3
f 79/1/3 74/1/3 73/1/3
f 80/1/3 74/1/3 79/1/3
f 81/1/3 76/1/3 75/1/3
f 82/1/3 76/1/3 81/1/3
f 83/1/3 79/1/3 57/1/3
f 84/1/3 74/1/3 80/1/3
f 85/1/3 81/1/3 75/1/3
f 86/1/3 76/1/3 82/1/3
f 87/1/3 83/1/3 57/1/3
f 87/1/3 84/1/3 83/1/3
f 88/2/3 75/2/3 74/2/3
f 88/1/3 84/1/3 87/1/3
f 88/1/3 74/1/3 84/1/3
f 89/1/3 86/1/3 85/1/3
f 89/2/3 75/2/3 88/2/3
f 89/1/3 85/1/3 75/1/3
f 90/2/3 77/2/3 76/2/3
f 90/1/3 86/1/3 89/1/3
f 90/1/3 76/1/3 86/1/3
f 91/1/3 78/1/3 77/1/3
f 91/2/3 77/2/3 90/2/3
f 92/1/3 62/1/3 78/1/3
f 92/1/3 78/1/3 91/1/3
f 93/2/4 94/2/4 95/2/4
f 95/2/4 94/2/4 96/2/4
f 97/1/4 98/1/4 103/1/4
f 98/2/4 99/2/4 104/2/4
f 103/1/4 98/1/4 104/1/4
f 100/2/4 101/2/4 105/2/4
f 101/1/4 102/1/4 106/1/4
f 105/2/4 101/2/4 106/2/4
f 99/1/4 100/1/4 107/1/4
f 100/2/4 105/2/4 108/2/4
f 107/1/4 100/1/4 108/1/4
f 104/2/4 99/2/4 109/2/4
f 103/2/4 104/2/4 109/2/4
f 99/1/4 107/1/4 110/1/4
f 109/2/4 99/2/4 110/2/4
f 107/2/4 108/2/4 111/2/4
f 110/1/4 107/1/4 111/1/4
f 108/2/4 105/2/4 112/2/4
f 111/2/4 108/2/4 112/2/4
f 105/1/4 106/1/4 112/1/4
f 103/2/4 109/2/4 113/2/4
f 97/1/4 103/1/4 113/1/4
f 111/1/4 112/1/4 114/1/4
f 113/2/4 109/2/4 114/2/4
f 110/1/4 111/1/4 114/1/4
f 109/1/4 110/1/4 114/1/4
f 97/1/4 113/1/4 115/1/4
f 113/1/4 114/1/4 115/1/4
f 112/1/4 106/1/4 116/1/4
f 115/1/4 114/1/4 116/1/4
f 114/1/4 112/1/4 116/1/4
f 106/1/4 102/1/4 116/1/4
f 97/1/4 115/1/4 117/1/4
f 116/1/4 102/1/4 118/1/4
f 117/1/4 118/1/4 119/1/4
f 119/1/4 118/1/4 120/1/4
f 117/1/4 119/1/4 121/1/4
f 121/1/4 119/1/4 122/1/4
f 97/1/4 117/1/4 123/1/4
f 117/1/4 121/1/4 123/1/4
f 121/2/4 122/2/4 124/2/4
f 123/1/4 121/1/4 124/1/4
f 122/1/4 119/1/4 125/1/4
f 124/2/4 122/2/4 125/2/4
f 119/2/4 120/2/4 126/2/4
f 125/1/4 119/1/4 126/1/4
f 120/1/4 118/1/4 127/1/4
f 126/2/4 120/2/4 127/2/4
f 118/1/4 102/1/4 128/1/4
f 127/1/4 118/1/4 128/1/4
f 131/1/5 130/1/5 129/1/5
f 132/1/5 130/1/5 131/1/5
f 135/2/5 134/2/5 133/2/5
f 136/2/5 134/2/5 135/2/5
f 139/2/5 138/2/5 137/2/5
f 140/2/5 138/2/5 139/2/5
f 143/2/5 142/2/5 141/2/5
f 144/2/5 142/2/5 143/2/5
f 145/1/5 144/1/5 143/1/5
f 146/1/5 144/1/5 145/1/5
f 147/2/6 148/2/6 149/2/6
f 149/2/6 148/2/6 150/2/6
f 151/2/6 152/2/6 153/2/6
f 153/2/6 152/2/6 154/2/6
f 153/1/6 154/1/6 155/1/6
f 155/1/6 154/1/6 156/1/6
f 157/2/6 158/2/6 159/2/6
f 159/2/6 158/2/6 160/2/6
f 161/1/6 162/1/6 163/1/6
f 163/1/6 162/1/6 164/1/6
